<?xml version="1.0" encoding="UTF-8" standalone="no"?>
<svg
   xmlns:dc="http://purl.org/dc/elements/1.1/"
   xmlns:cc="http://creativecommons.org/ns#"
   xmlns:rdf="http://www.w3.org/1999/02/22-rdf-syntax-ns#"
   xmlns:svg="http://www.w3.org/2000/svg"
   xmlns="http://www.w3.org/2000/svg"
   xmlns:sodipodi="http://sodipodi.sourceforge.net/DTD/sodipodi-0.dtd"
   xmlns:inkscape="http://www.inkscape.org/namespaces/inkscape"
   width="127.00001mm"
   height="129.11667mm"
   viewBox="0 0 127.00001 129.11667"
   version="1.1"
   id="svg174"
   inkscape:version="1.0.1 (c497b03c, 2020-09-10)"
   sodipodi:docname="logo.svg">
  <defs
     id="defs168" />
  <sodipodi:namedview
     id="base"
     pagecolor="#ffffff"
     bordercolor="#666666"
     borderopacity="1.0"
     inkscape:pageopacity="0.0"
     inkscape:pageshadow="2"
     inkscape:zoom="0.55341142"
     inkscape:cx="292.46055"
     inkscape:cy="197.05887"
     inkscape:document-units="mm"
     inkscape:current-layer="layer1"
     inkscape:document-rotation="0"
     showgrid="false"
     inkscape:window-width="1252"
     inkscape:window-height="673"
     inkscape:window-x="0"
     inkscape:window-y="25"
     inkscape:window-maximized="0" />
  <metadata
     id="metadata171">
    <rdf:RDF>
      <cc:Work
         rdf:about="">
        <dc:format>image/svg+xml</dc:format>
        <dc:type
           rdf:resource="http://purl.org/dc/dcmitype/StillImage" />
        <dc:title></dc:title>
      </cc:Work>
    </rdf:RDF>
  </metadata>
  <g
     inkscape:label="Layer 1"
     inkscape:groupmode="layer"
     id="layer1"
     transform="translate(-36.285713,-76.048807)">
    <g
       id="g412">
      <path
         d="m 44.75238,188.23214 v -71.96667 c 0,-2.33891 1.894417,-4.23333 4.233334,-4.23333 H 150.58572 c 2.33891,0 4.23333,1.89442 4.23333,4.23333 v 71.96667"
         fill="#a8b0bc"
         id="path176"
         style="stroke-width:2.11667" />
      <path
         d="m 134.19001,151.72599 c 0,-14.89498 -4.9276,-28.6385 -13.23551,-39.69385 H 48.985714 c -2.338917,0 -4.233334,1.89442 -4.233334,4.23333 v 71.96667 h 78.44578 c 6.93844,-10.46268 10.99185,-23.00817 10.99185,-36.50615 z"
         fill="#c1c8d1"
         id="path178"
         style="stroke-width:2.11667" />
      <path
         d="M 146.35238,181.88214 H 53.219047 c -1.1684,0 -2.116667,-0.94826 -2.116667,-2.11667 v -59.26666 c 0,-1.1684 0.948267,-2.11667 2.116667,-2.11667 h 93.133333 c 1.1684,0 2.11667,0.94827 2.11667,2.11667 v 59.26666 c 0,1.16841 -0.94827,2.11667 -2.11667,2.11667 z"
         fill="#c7e2fc"
         id="path180"
         style="stroke-width:2.11667" />
      <path
         d="m 51.10238,120.49881 v 59.26666 c 0,1.16841 0.948267,2.11667 2.116667,2.11667 h 73.689633 c 4.64397,-9.04452 7.28133,-19.28918 7.28133,-30.15615 0,-12.16448 -3.29776,-23.55215 -9.0297,-33.34385 H 53.219047 c -1.1684,0 -2.116667,0.94827 -2.116667,2.11667 z"
         fill="#ebf7fe"
         id="path182"
         style="stroke-width:2.11667" />
      <path
         d="m 51.10238,167.06547 10.583334,-10.58333 8.466667,8.46667 10.583333,-10.58334 23.283336,16.93334 29.63333,-21.16667 14.81667,12.7 v 16.93333 c 0,1.16841 -0.94827,2.11667 -2.11667,2.11667 H 53.219047 c -1.1684,0 -2.116667,-0.94826 -2.116667,-2.11667 z"
         fill="#f2c351"
         id="path184"
         style="stroke-width:2.11667" />
      <path
         d="m 134.1498,150.55759 -0.49742,-0.42545 -29.63333,21.16667 -23.283336,-16.93334 -10.583333,10.58334 -8.466667,-8.46667 -10.583334,10.58333 v 12.7 c 0,1.16841 0.948267,2.11667 2.116667,2.11667 h 73.689633 c 4.64397,-9.04452 7.28133,-19.28918 7.28133,-30.15615 0,-0.39158 -0.0339,-0.77682 -0.0402,-1.1684 z"
         fill="#f7d881"
         id="path186"
         style="stroke-width:2.11667" />
      <path
         d="m 87.085714,190.34881 c 0,1.1684 0.948267,2.11667 2.116667,2.11667 h 21.166669 c 1.1684,0 2.11666,-0.94827 2.11666,-2.11667 0,-1.1684 0.94827,-2.11667 2.11667,-2.11667 h 46.56667 c 1.1684,0 2.11667,0.94827 2.11667,2.11667 v 6.35 c 0,4.67572 -3.79095,8.46667 -8.46667,8.46667 H 44.75238 c -4.675717,0 -8.466667,-3.79095 -8.466667,-8.46667 v -6.35 c 0,-1.1684 0.948267,-2.11667 2.116667,-2.11667 h 46.566668 c 1.1684,0 2.116666,0.94827 2.116666,2.11667 z"
         fill="#758190"
         id="path188"
         style="stroke-width:2.11667" />
      <path
         d="m 114.60238,188.23214 c -1.1684,0 -2.11667,0.94827 -2.11667,2.11667 0,1.1684 -0.94826,2.11667 -2.11666,2.11667 H 89.202381 c -1.1684,0 -2.116667,-0.94827 -2.116667,-2.11667 0,-1.1684 -0.948266,-2.11667 -2.116666,-2.11667 H 38.40238 c -1.1684,0 -2.116667,0.94827 -2.116667,2.11667 v 6.35 c 0,4.67572 3.79095,8.46667 8.466667,8.46667 h 62.25117 c 6.35,-4.6355 11.84063,-10.37167 16.1925,-16.93334 z"
         fill="#8892a0"
         id="path190"
         style="stroke-width:2.11667" />
      <g
         id="g194"
         transform="matrix(2.1166667,0,0,2.1166667,32.05238,73.93214)">
        <path
           d="m 5,57 h 6 v 2 H 5 Z"
           fill="#a8b0bc"
           id="path192" />
      </g>
      <g
         id="g198"
         transform="matrix(2.1166667,0,0,2.1166667,32.05238,73.93214)">
        <path
           d="m 53,57 h 6 v 2 h -6 z"
           fill="#a8b0bc"
           id="path196" />
      </g>
      <path
         d="m 99.785714,133.19881 -8.466666,10.58333 h 4.233333 v 14.81667 h 8.466669 v -14.81667 h 4.23333 z"
         fill="#e47c6e"
         id="path210"
         style="stroke-width:2.11667" />
      <g
         id="g214"
         transform="matrix(2.1166667,0,0,2.1166667,32.05238,73.93214)">
        <path
           d="m 13,43 h 2 v 8 h -2 z"
           fill="#e39854"
           id="path212" />
      </g>
      <g
         id="g218"
         transform="matrix(2.1166667,0,0,2.1166667,32.05238,73.93214)">
        <path
           d="m 21,42.999 h 2 v 8 h -2 z"
           fill="#e39854"
           id="path216" />
      </g>
      <g
         id="g222"
         transform="matrix(2.1166667,0,0,2.1166667,32.05238,73.93214)">
        <path
           d="m 33,48 h 2 v 3 h -2 z"
           fill="#e39854"
           id="path220" />
      </g>
      <g
         id="g226"
         transform="matrix(2.1166667,0,0,2.1166667,32.05238,73.93214)">
        <path
           d="m 37,47 h 2 v 4 h -2 z"
           fill="#e39854"
           id="path224" />
      </g>
      <g
         id="g230"
         transform="matrix(2.1166667,0,0,2.1166667,32.05238,73.93214)">
        <path
           d="m 41,44 h 2 v 7 h -2 z"
           fill="#e39854"
           id="path228" />
      </g>
      <g
         id="g234"
         transform="matrix(2.1166667,0,0,2.1166667,32.05238,73.93214)">
        <path
           d="m 29,48 h 2 v 3 h -2 z"
           fill="#e39854"
           id="path232" />
      </g>
      <g
         id="g238"
         transform="matrix(2.1166667,0,0,2.1166667,32.05238,73.93214)">
        <path
           d="m 49,41 h 2 v 10 h -2 z"
           fill="#c16b3f"
           id="path236" />
      </g>
      <g
         id="g242"
         transform="matrix(2.1166667,0,0,2.1166667,32.05238,73.93214)">
        <path
           d="m 45,40.999 h 2 v 10 h -2 z"
           fill="#e39854"
           id="path240" />
      </g>
      <g
         id="g246"
         transform="matrix(2.1166667,0,0,2.1166667,32.05238,73.93214)">
        <path
           d="m 17,46 h 2 v 5 h -2 z"
           fill="#e39854"
           id="path244" />
      </g>
      <g
         id="g250"
         transform="matrix(2.1166667,0,0,2.1166667,32.05238,73.93214)">
        <path
           d="m 25,43.999 h 2 v 7 h -2 z"
           fill="#e39854"
           id="path248" />
      </g>
    </g>
    <g
       id="g377"
       transform="translate(0.5302165)">
      <path
         d="m 50.086377,98.496057 -2.779183,-2.779183 -2.995084,2.995083 6.35,6.350003 c 0.41275,0.41275 0.954617,0.61806 1.4986,0.61806 0.541867,0 1.083734,-0.20531 1.496484,-0.61806 l 6.35,-6.350003 -2.995084,-2.995083 -2.688166,2.688166 c 0.486833,-10.073216 8.811683,-18.1229 19.003433,-18.1229 v -4.233333 c -12.558183,0 -22.7965,9.999133 -23.241,22.44725 z"
         id="path204"
         style="fill:#e47c6e;stroke-width:2.11667" />
      <path
         d="m 151.20381,95.716874 -2.77918,2.779183 c -0.4445,-12.450233 -10.68494,-22.44725 -23.23889,-22.44725 v 4.233333 c 10.19175,0 18.51449,8.0518 19.00132,18.125017 l -2.68817,-2.688167 -2.99508,2.995084 6.35,6.349996 c 0.41275,0.41064 0.95462,0.61807 1.49648,0.61807 0.54187,0 1.08374,-0.20532 1.4986,-0.61807 l 6.35,-6.349996 z"
         id="path206"
         style="fill:#e47c6e;stroke-width:2.11667" />
      <g
         id="g328"
         transform="matrix(1.8534299,0,0,1.8534299,77.014866,76.048807)"
         style="display:inline">
        <circle
           cx="12"
           cy="12"
           fill="#ffd54f"
           r="12"
           id="circle300" />
        <path
           d="M 21.555,0.964 C 20.976,0.964 20.43,1.159 20,1.495 19.57,1.159 19.024,0.964 18.445,0.964 17.097,0.964 16,2.012 16,3.3 c 0,2.007 2.975,4.185 3.57,4.601 0.13,0.09 0.28,0.135 0.43,0.135 0.15,0 0.3,-0.045 0.43,-0.135 C 21.025,7.484 24,5.307 24,3.3 24,2.012 22.903,0.964 21.555,0.964 Z"
           fill="#e53935"
           id="path302" />
        <path
           d="M 5.555,16.964 C 4.976,16.964 4.43,17.159 4,17.495 3.57,17.159 3.024,16.964 2.445,16.964 1.097,16.964 0,18.012 0,19.3 c 0,2.007 2.975,4.185 3.57,4.601 0.13,0.09 0.28,0.135 0.43,0.135 0.15,0 0.3,-0.045 0.43,-0.135 C 5.025,23.484 8,21.307 8,19.3 8,18.012 6.903,16.964 5.555,16.964 Z"
           fill="#e53935"
           id="path304" />
        <g
           fill="#6d4c41"
           id="g312">
          <path
             d="m 9.25,11.25 c -0.414,0 -0.75,-0.336 -0.75,-0.75 0,-0.551 -0.448,-1 -1,-1 -0.552,0 -1,0.449 -1,1 0,0.414 -0.336,0.75 -0.75,0.75 C 5.336,11.25 5,10.914 5,10.5 5,9.122 6.121,8 7.5,8 8.879,8 10,9.122 10,10.5 c 0,0.414 -0.336,0.75 -0.75,0.75 z"
             id="path306" />
          <path
             d="m 18.25,11.25 c -0.414,0 -0.75,-0.336 -0.75,-0.75 0,-0.551 -0.448,-1 -1,-1 -0.552,0 -1,0.449 -1,1 0,0.414 -0.336,0.75 -0.75,0.75 C 14.336,11.25 14,10.914 14,10.5 14,9.122 15.121,8 16.5,8 c 1.379,0 2.5,1.122 2.5,2.5 0,0.414 -0.336,0.75 -0.75,0.75 z"
             id="path308" />
          <path
             d="m 12,18 c -2.184,0 -4.236,-0.85 -5.78,-2.395 -0.293,-0.293 -0.293,-0.768 0,-1.061 0.293,-0.293 0.768,-0.293 1.061,0 1.26,1.262 2.936,1.956 4.719,1.956 1.783,0 3.459,-0.694 4.72,-1.955 0.293,-0.293 0.768,-0.293 1.061,0 0.293,0.293 0.293,0.768 0,1.061 C 16.236,17.15 14.184,18 12,18 Z"
             id="path310" />
        </g>
      </g>
    </g>
  </g>
</svg>
